<?xml version="1.0" encoding="UTF-8"?>
<svg id="Layer_2" data-name="Layer 2" xmlns="http://www.w3.org/2000/svg" xmlns:xlink="http://www.w3.org/1999/xlink" viewBox="0 0 144.92 145.08">
  <defs>
    <style>
      .cls-1, .cls-2, .cls-3 {
        stroke-width: 0px;
      }

      .cls-2 {
        fill: none;
      }

      .cls-4 {
        clip-path: url(#clippath);
      }

      .cls-3 {
        fill: #dedfdf;
      }
    </style>
    <clipPath id="clippath">
      <rect class="cls-2" width="144.92" height="145.08"/>
    </clipPath>
  </defs>
  <g id="Layer_1-2" data-name="Layer 1">
    <g class="cls-4">
      <path class="cls-3" d="m144.92,72.54c0,40.06-32.48,72.54-72.54,72.54S-.17,112.61-.17,72.54,32.31,0,72.37,0s72.54,32.48,72.54,72.54"/>
    </g>
    <polygon class="cls-1" points="76.37 54.19 41.92 106.5 39.46 104.5 42.76 80.89 65.15 55.81 77.56 36.73 76.37 54.19"/>
    <polygon class="cls-1" points="68.69 104.39 54.31 99.91 52.36 84.49 62.26 72.82 74.69 78.75 75.81 93.12 68.69 104.39"/>
    <path class="cls-1" d="m99.99,81.22s-3.75-.94-4.93-1.46c-1.14-.5-4.25-2.58-4.25-2.58,0,0-2.28,9.76-3.47,12.88-1.22,3.19-6.16,12.2-6.16,12.2,0,0,3.53,1.43,4.59,2.13.91.6,3.25,2.91,3.25,2.91,0,0,1.35-4.9,2.39-6.84,3.59-6.65,8.58-19.25,8.58-19.25"/>
    <polygon class="cls-1" points="100.7 74.79 89.81 69.57 81.18 51.65 82.64 18.07 104.58 52.4 100.7 74.79"/>
    <path class="cls-1" d="m69.87,114.65s-13.42-2.1-16.94-2.39c-2.96-.24-11.87.98-11.87.98l3.36-6.74,25.45,8.15Z"/>
  </g>
</svg>